<?xml version="1.0" encoding="UTF-8"?>
<svg
  t="1740000000000"
  class="icon"
  viewBox="0 0 1024 1024"
  version="1.1"
  xmlns="http://www.w3.org/2000/svg"
  p-id="27237"
  width="64"
  height="64"
>
  <path
    d="M925.4816 198.3744a51.2 51.2 0 0 1 45.7216 56.32L957.0816 892.8256a51.2 51.2 0 0 1-101.2736 15.36L837.9648 473.5488 721.92 900.1984a51.2 51.2 0 0 1-95.232-40.96l97.28-442.368c-36.9664-13.312-65.6384-42.9056-79.872-80.896L439.0912 921.8048a51.2 51.2 0 0 1-74.24-66.56L588.3136 91.4944a51.2 51.2 0 0 1 91.136-7.68l219.648 91.136a51.2 51.2 0 0 1 26.3936 23.4496z"
    p-id="27238"
    fill="currentColor"
  />
</svg>
