<?xml version="1.0" encoding="UTF-8"?>
<svg
  t="1740000000001"
  class="icon"
  viewBox="0 0 1024 1024"
  version="1.1"
  xmlns="http://www.w3.org/2000/svg"
  p-id="27239"
  width="64"
  height="64"
>
  <path
    d="M512 102.4a409.6 409.6 0 1 0 409.6 409.6A409.6 409.6 0 0 0 512 102.4zm0 716.8a307.2 307.2 0 1 1 307.2-307.2 307.2 307.2 0 0 1-307.2 307.2z"
    p-id="27240"
    fill="currentColor"
  />
  <path
    d="M655.36 337.92l-51.2 51.2a51.2 51.2 0 0 1-72.32 72.32l-51.2-51.2a289.28 289.28 0 0 0 174.72-72.32zM399.36 501.76l-51.2 51.2a51.2 51.2 0 0 1-72.32-72.32l51.2-51.2a289.28 289.28 0 0 0 72.32 72.32zM276.48 624.64a286.72 286.72 0 0 0 72.32 72.32l-51.2 51.2a51.2 51.2 0 0 1-72.32-72.32zM747.52 501.76a286.72 286.72 0 0 0-72.32-72.32l51.2-51.2a51.2 51.2 0 0 1 72.32 72.32z"
    p-id="27241"
    fill="currentColor"
  />
</svg>
